PathFileType	4	(X/Y/Z)	C:/Users/opensim2020/Desktop/walking_exp_matlab/subject06_walking18_straight_02.trc	
DataRate	CameraRate	NumFrames	NumMarkers	Units	OrigDataRate	OrigDataStartFrame	OrigNumFrames	
100.00	100.00	4	47	mm	100.00	2415	326	
Frame#	Time	LFHD			RFHD			LBHD			RBHD			C7			T10			CLAV			STRN			RBAK			LSHO			LUPA			LELB			LFRM			LWRA			LWRB			LFIN			RSHO			RUPA			RELB			RFRM			RWRA			RWRB			RFIN			LASI			RASI			LPSI			RPSI			LTHI			LKNE			LTIB			LANK			LHEE			LTOE			RTHI			RKNE			RTIB			RANK			RHEE			RTOE			*39			*40			*41			*42			*43			*44			*45			*46			
		X1	Y1	Z1	X2	Y2	Z2	X3	Y3	Z3	X4	Y4	Z4	X5	Y5	Z5	X6	Y6	Z6	X7	Y7	Z7	X8	Y8	Z8	X9	Y9	Z9	X10	Y10	Z10	X11	Y11	Z11	X12	Y12	Z12	X13	Y13	Z13	X14	Y14	Z14	X15	Y15	Z15	X16	Y16	Z16	X17	Y17	Z17	X18	Y18	Z18	X19	Y19	Z19	X20	Y20	Z20	X21	Y21	Z21	X22	Y22	Z22	X23	Y23	Z23	X24	Y24	Z24	X25	Y25	Z25	X26	Y26	Z26	X27	Y27	Z27	X28	Y28	Z28	X29	Y29	Z29	X30	Y30	Z30	X31	Y31	Z31	X32	Y32	Z32	X33	Y33	Z33	X34	Y34	Z34	X35	Y35	Z35	X36	Y36	Z36	X37	Y37	Z37	X38	Y38	Z38	X39	Y39	Z39	X40	Y40	Z40	X41	Y41	Z41	X42	Y42	Z42	X43	Y43	Z43	X44	Y44	Z44	X45	Y45	Z45	X46	Y46	Z46	X47	Y47	Z47	

164	1.630	-910.78168	264.39169	1661.39795	-1043.69214	263.87759	1657.59546	-914.58911	397.61469	1606.60144	-1044.02515	395.23367	1607.74414	-974.17688	399.15836	1452.47144	-993.61877	434.98392	1123.69995	-985.92755	289.23041	1376.58276	-990.84814	249.84583	1200.57690	-1056.78418	476.15744	1284.89038	-819.70337	330.77432	1400.53125	-751.29401	310.23456	1197.60046	-739.10229	296.12280	1085.62671	-727.61572	219.17445	955.30902	-779.54382	120.48763	879.56537	-742.64618	171.33342	846.64484	-747.77747	99.18759	792.28168	-1142.26147	344.97787	1415.52832	-1235.22449	390.39005	1221.40137	-1250.51831	384.92859	1099.74316	-1270.81812	365.60123	981.73352	-1243.64404	295.94574	846.18591	-1282.77441	352.23077	845.09351	-1286.71069	310.91779	771.27417	-901.48199	252.05484	961.03424	-1122.07263	268.02557	973.83240	-918.73932	411.63327	989.48694	-1086.96179	418.23959	992.09332	-853.63086	333.34882	647.31177	-877.32489	352.95181	483.85782	-894.20477	414.73178	233.24153	-947.69946	437.30261	65.08753	-993.00970	477.79596	53.37560	-951.08417	292.79852	34.60699	-1183.86548	282.61365	657.40100	-1164.71045	205.82846	528.97070	-1167.54663	230.97685	268.11795	-1130.98047	235.76390	80.74843	-1085.23950	272.73285	53.92757	-1131.50171	86.29145	43.45986	-968.89990	364.40451	1702.44189																					 
165	1.640	-910.69238	258.86951	1660.77551	-1043.62610	258.60458	1657.06067	-914.38159	391.99136	1606.12195	-1043.33740	389.42627	1607.19214	-973.93658	393.87338	1451.94763	-993.49164	429.67545	1123.18579	-985.77710	283.82468	1376.16895	-990.72571	244.51605	1200.08887	-1056.38538	470.89508	1284.31506	-819.49945	325.33115	1400.09338	-751.03931	304.41156	1197.25012	-738.73651	289.57245	1085.30225	-727.41913	211.57965	955.71057	-779.29834	112.12312	881.14978	-742.45526	162.70700	847.45532	-747.72125	89.79381	793.95996	-1141.99744	339.92361	1415.06091	-1234.98254	385.57806	1221.02148	-1250.31519	380.39737	1099.36426	-1270.68091	361.22824	981.35126	-1243.74878	291.44772	845.74939	-1282.71094	347.90546	844.72522	-1286.73804	306.77295	770.85455	-901.27692	246.92815	960.45697	-1121.86914	262.58511	973.31219	-918.75507	406.53912	989.04431	-1086.98096	412.89447	991.66174	-853.67108	328.94370	646.79144	-877.53296	348.96994	483.37253	-894.46967	412.95587	233.20930	-947.92780	436.93994	65.31252	-993.27795	477.54626	53.78764	-951.13580	292.65198	34.56266	-1187.75537	248.49648	645.76239	-1164.05432	200.57835	528.43329	-1166.93542	218.77660	267.10764	-1130.48315	217.80405	79.65399	-1084.86499	254.31866	52.43622	-1129.79224	67.36892	44.67150	-968.67853	358.94968	1701.95740																					 
166	1.650	-910.91113	253.25479	1660.31592	-1043.60400	253.23357	1656.48694	-914.09290	386.50970	1605.64282	-1043.14526	384.14984	1606.70544	-973.71771	388.62915	1451.38416	-993.44159	424.31772	1122.58374	-985.67102	278.52841	1375.66919	-990.62769	239.07564	1199.61792	-1055.99878	465.51291	1283.60034	-819.35449	319.97144	1399.59009	-750.79340	298.50601	1196.87964	-738.89905	282.98340	1084.96399	-726.90051	204.12303	956.14655	-779.15216	103.97787	882.56500	-742.57269	154.23482	848.37866	-747.63361	80.86802	795.49390	-1141.86401	334.86124	1414.62598	-1234.78406	380.93976	1220.60449	-1250.17041	375.86005	1098.95056	-1270.60535	356.80215	980.92596	-1243.93884	287.02063	845.26129	-1282.64807	343.50510	844.21698	-1286.78784	302.57309	770.38031	-901.00610	241.82979	959.82471	-1121.60486	256.98648	972.71393	-918.82263	401.44452	988.58179	-1087.03003	407.30005	991.12878	-853.76306	324.50705	646.18781	-877.87000	345.31805	482.97787	-894.91095	410.87634	233.19527	-948.11682	436.55966	65.53095	-993.87012	477.98538	54.70509	-951.32648	292.36215	34.54858	-1187.84497	243.37265	644.99249	-1163.55347	195.48956	527.71667	-1166.30615	207.04568	266.28232	-1129.90100	200.34975	78.88877	-1084.33447	236.22971	51.07299	-1128.61743	48.99731	46.56190	-968.54706	353.41028	1701.45337																					 
167	1.660	-910.85699	247.67632	1659.74219	-1043.63928	247.85260	1655.88940	-914.01306	381.01016	1605.19092	-1042.90637	378.65225	1606.18555	-973.53827	383.24332	1450.80627	-993.42407	418.95956	1121.96912	-985.65002	273.19870	1375.14050	-990.54785	233.63333	1199.06030	-1055.69336	460.22897	1282.99719	-819.28351	314.55957	1399.08594	-750.65314	292.50778	1196.48608	-738.48700	276.87280	1084.61206	-726.73169	196.74397	956.43896	-778.99066	96.04102	883.62042	-742.41284	146.10123	848.96765	-747.52240	72.38330	796.85577	-1141.79089	329.73294	1414.08435	-1234.70923	376.10025	1220.10901	-1250.06201	371.25644	1098.46509	-1270.56946	352.32706	980.43341	-1244.12427	282.43637	844.75714	-1282.63147	339.17709	843.69806	-1286.91272	298.27237	769.86151	-900.66400	236.64156	959.17877	-1121.27710	251.26794	972.06366	-918.97400	396.23199	988.00549	-1087.24597	401.73181	990.56909	-853.98938	320.18973	645.69794	-878.12939	341.44958	482.49240	-895.27069	408.82770	233.20085	-948.25916	436.18643	65.71557	-993.65808	477.01904	54.55798	-951.36676	292.24777	34.49300	-1187.87097	238.12901	644.17053	-1163.13391	190.35124	526.75012	-1165.64502	195.57813	265.46030	-1129.30493	183.55095	78.45071	-1083.64917	218.53108	49.93644	-1127.89307	31.14001	49.07674	-968.42651	347.88046	1700.95435																					 
